<svg xmlns:dc="http://purl.org/dc/elements/1.1/" xmlns:cc="http://creativecommons.org/ns#" xmlns:rdf="http://www.w3.org/1999/02/22-rdf-syntax-ns#" xmlns:svg="http://www.w3.org/2000/svg" xmlns="http://www.w3.org/2000/svg" version="1.1" viewBox="0 0 100 100" x="0px" y="0px"><g transform="translate(0,-952.36216)"><path transform="translate(0,952.36216)" d="M 50 14.226562 C 30.19754 14.235163 13.319331 28.593635 10.136719 48.138672 C 4.575725 51.347719 1.1460062 57.276789 1.1367188 63.697266 C 1.1362774 73.634575 9.1915987 81.690769 19.128906 81.691406 C 19.41168 81.688346 19.694253 81.676526 19.976562 81.660156 C 20.306487 81.600227 20.583551 81.503033 20.814453 81.351562 C 16.256066 74.689613 13.578963 66.769969 13.572266 58.445312 C 13.571075 37.105425 29.880531 19.80521 50 19.804688 C 70.119469 19.805211 86.428925 37.105425 86.427734 58.445312 C 86.420267 66.72923 83.771703 74.615015 79.251953 81.257812 C 79.518519 81.468864 79.845577 81.59875 80.259766 81.667969 C 80.468698 81.678261 80.677567 81.691406 80.886719 81.691406 C 90.824028 81.690706 98.879347 73.634566 98.878906 63.697266 C 98.869606 57.276766 95.439898 51.347772 89.878906 48.138672 C 89.879448 48.141972 89.880259 48.145138 89.880859 48.148438 L 89.828125 48.066406 L 89.884766 48.1875 C 89.885302 48.1908 89.886119 48.193966 89.886719 48.197266 L 89.828125 48.109375 L 89.830078 48.146484 L 89.828125 48.144531 C 86.650132 28.61025 69.791039 14.25285 50 14.226562 z " fill="#06568f"/><path d="m 17.47044,1015.8398 c 0,-0.2794 17.569935,-3.3668 18.483028,-3.745 0.893983,-0.3702 9.742907,-16.72043 10.861688,-16.72043 1.442688,0 8.885653,19.94313 9.380224,19.94313 0.538626,0 3.624523,-2.8597 3.999762,-2.8597 0.643684,0 22.334418,2.7922 22.334418,3.3827 0,0.4929 -18.814563,3.2984 -19.508535,3.2984 -0.572552,0 -8.329325,16.4071 -9.136946,16.4071 -1.090703,0 -8.711925,-20.3935 -9.294481,-20.3935 -0.532641,0 -3.487327,3.2164 -4.791169,3.7564 -0.425224,0.1761 -22.327989,-2.782 -22.327989,-3.0691 z" fill-opacity="1" fill-rule="evenodd" stroke="none" fill="#06568f"/></g></svg>